#!OML:ASF E:\pregnant2\Project 1\Capture day 1\Session 1\pregnant2.ASF
:FULLY-SPECIFIED
:DEGREES
3374
root 22.5865 16.853 8.66867 -156.058 4.20267 534.348
lowerback -12.3641 -2.7255 -1.98293
upperback -13.2758 -1.05155 1.5218
thorax -7.11133 0.756907 2.52879
lowerneck -12.1612 -6.74241 -6.08047
upperneck 37.3558 -5.27897 1.49022
head 15.3927 -1.53004 1.20541
rclavicle 1.19271e-015 3.97569e-015
rhumerus -115.184 23.7336 -136.519
rradius 91.8816
rwrist 35.4962
rhand -52.3181 -41.4209
rfingers 7.12502
rthumb 155.188 -249.831
lclavicle 1.19271e-015 3.97569e-015
lhumerus -113.84 -29.7737 145.284
lradius 91.917
lwrist -19.0271
lhand -46.3328 39.2368
lfingers 7.12502
lthumb 160.934 -111.678
rfemur -55.6606 6.0144 6.63513
rtibia 36.2154
rfoot -17.6353 -20.8634
rtoes -2.02703
lfemur -27.0009 -6.74152 -30.9068
ltibia 23.0782
lfoot -15.3262 14.4272
ltoes -14.7414
3375
root 22.602 16.8689 8.57961 -156.039 4.1198 534.337
lowerback -12.4207 -2.76108 -2.02722
upperback -13.2838 -1.08566 1.56052
thorax -7.0858 0.748785 2.59189
lowerneck -12.1138 -6.6046 -5.92414
upperneck 37.3278 -5.11816 1.52186
head 15.3518 -1.43186 1.22086
rclavicle 1.03368e-014 7.95139e-016
rhumerus -115.181 23.7257 -136.325
rradius 91.9749
rwrist 35.5299
rhand -52.3404 -41.4193
rfingers 7.12502
rthumb 155.166 -249.827
lclavicle 1.03368e-014 7.95139e-016
lhumerus -113.804 -29.6989 145.31
lradius 91.9113
lwrist -18.9973
lhand -46.3245 39.2508
lfingers 7.12502
lthumb 160.942 -111.663
rfemur -55.6697 7.04922 5.4964
rtibia 34.6214
rfoot -17.9511 -21.5943
rtoes -1.81246
lfemur -26.2 -6.7441 -30.8815
ltibia 22.1029
lfoot -15.0858 14.3228
ltoes -14.9527
3376
root 22.6187 16.8836 8.48957 -156.029 4.02786 534.315
lowerback -12.4769 -2.79953 -2.08434
upperback -13.2865 -1.12436 1.59608
thorax -7.05374 0.738413 2.65857
lowerneck -12.0709 -6.46745 -5.77615
upperneck 37.2929 -4.96246 1.56591
head 15.3099 -1.3361 1.24149
rclavicle 9.74045e-015 -9.54166e-015
rhumerus -115.163 23.7335 -136.129
rradius 92.0535
rwrist 35.5512
rhand -52.3636 -41.4196
rfingers 7.12502
rthumb 155.144 -249.824
lclavicle 9.74045e-015 -9.54166e-015
lhumerus -113.755 -29.6218 145.329
lradius 91.9069
lwrist -18.9696
lhand -46.3217 39.2868
lfingers 7.12502
lthumb 160.945 -111.627
rfemur -55.7004 8.24463 4.18103
rtibia 33.1432
rfoot -18.4052 -22.5594
rtoes -1.35656
lfemur -25.3803 -6.75194 -30.8617
ltibia 21.1179
lfoot -14.8468 14.212
ltoes -15.1477
3377
root 22.6365 16.8957 8.39966 -156.041 3.93108 534.295
lowerback -12.5174 -2.8391 -2.14758
upperback -13.2815 -1.16782 1.63096
thorax -7.02112 0.724518 2.7279
lowerneck -12.0236 -6.33251 -5.6259
upperneck 37.2524 -4.81087 1.60666
head 15.2645 -1.24267 1.25922
rclavicle 1.98785e-016 -1.74931e-014
rhumerus -115.144 23.76 -135.947
rradius 92.1129
rwrist 35.58
rhand -52.4397 -41.5953
rfingers 7.12502
rthumb 155.071 -249.989
lclavicle 1.98785e-016 -1.74931e-014
lhumerus -113.699 -29.5404 145.342
lradius 91.8982
lwrist -18.9477
lhand -46.3466 39.3398
lfingers 7.12502
lthumb 160.921 -111.576
rfemur -55.7561 9.59485 2.72095
rtibia 31.8046
rfoot -19.036 -23.7453
rtoes -0.594834
lfemur -24.5479 -6.76798 -30.8348
ltibia 20.1567
lfoot -14.6179 14.1127
ltoes -15.3244
3378
root 22.6558 16.905 8.30887 -156.062 3.82433 534.271
lowerback -12.5385 -2.87884 -2.21599
upperback -13.2812 -1.21124 1.66257
thorax -7.00415 0.711337 2.79672
lowerneck -11.976 -6.21455 -5.49192
upperneck 37.2197 -4.67986 1.64952
head 15.2251 -1.15942 1.27719
rclavicle -1.31198e-014 1.59028e-015
rhumerus -115.114 23.7805 -135.765
rradius 92.156
rwrist 35.5977
rhand -52.5195 -41.7509
rfingers 7.12502
rthumb 154.995 -250.134
lclavicle -1.31198e-014 1.59028e-015
lhumerus -113.653 -29.4552 145.368
lradius 91.8908
lwrist -18.9173
lhand -46.3775 39.4232
lfingers 7.12502
lthumb 160.891 -111.495
rfemur -55.8616 11.0426 1.15998
rtibia 30.6248
rfoot -19.8039 -25.1316
rtoes 0.324679
lfemur -23.7303 -6.79256 -30.8034
ltibia 19.2509
lfoot -14.409 14.0248
ltoes -15.5214
3379
root 22.677 16.9113 8.21618 -156.077 3.71542 534.247
lowerback -12.5805 -2.91559 -2.29141
upperback -13.2732 -1.25056 1.68971
thorax -6.96709 0.699804 2.86483
lowerneck -11.9614 -6.11034 -5.36487
upperneck 37.2054 -4.56423 1.68751
head 15.2038 -1.08412 1.29132
rclavicle 2.5842e-015 -2.38542e-014
rhumerus -115.055 23.8048 -135.575
rradius 92.1867
rwrist 35.6098
rhand -52.6005 -41.9037
rfingers 7.12502
rthumb 154.917 -250.276
lclavicle 2.5842e-015 -2.38542e-014
lhumerus -113.602 -29.3888 145.397
lradius 91.8878
lwrist -18.8749
lhand -46.3988 39.5227
lfingers 7.12502
lthumb 160.871 -111.398
rfemur -56.0251 12.491 -0.40658
rtibia 29.6153
rfoot -20.711 -26.6133
rtoes 1.34254
lfemur -22.9579 -6.8204 -30.7678
ltibia 18.4361
lfoot -14.2403 13.9586
ltoes -15.7455
3380
root 22.7002 16.9141 8.12177 -156.082 3.60269 534.226
lowerback -12.6367 -2.95059 -2.36543
upperback -13.2693 -1.28475 1.7157
thorax -6.92736 0.691738 2.93097
lowerneck -11.9657 -6.02634 -5.25178
upperneck 37.2181 -4.46565 1.71167
head 15.2015 -1.01842 1.29958
rclavicle 1.82882e-014 -1.19271e-014
rhumerus -114.986 23.8168 -135.387
rradius 92.2054
rwrist 35.6103
rhand -52.6958 -42.0562
rfingers 7.12502
rthumb 154.826 -250.416
lclavicle 1.82882e-014 -1.19271e-014
lhumerus -113.567 -29.3314 145.452
lradius 91.8885
lwrist -18.8128
lhand -46.4089 39.6365
lfingers 7.12502
lthumb 160.861 -111.285
rfemur -56.2288 13.8238 -1.85074
rtibia 28.7832
rfoot -21.6786 -28.0583
rtoes 2.27687
lfemur -22.2466 -6.8505 -30.7202
ltibia 17.7314
lfoot -14.1193 13.9142
ltoes -15.9955
3381
root 22.7251 16.9137 8.02549 -156.073 3.48843 534.209
lowerback -12.7016 -2.9857 -2.43985
upperback -13.2762 -1.31447 1.74329
thorax -6.89523 0.688109 2.99901
lowerneck -11.9944 -5.96511 -5.14993
upperneck 37.2664 -4.38294 1.70992
head 15.2233 -0.962539 1.29687
rclavicle 1.59028e-015 -2.54444e-014
rhumerus -114.924 23.8148 -135.203
rradius 92.223
rwrist 35.6088
rhand -53.205 -43.3385
rfingers 7.12502
rthumb 154.338 -251.629
lclavicle 1.59028e-015 -2.54444e-014
lhumerus -113.542 -29.2656 145.522
lradius 91.891
lwrist -18.7412
lhand -46.4031 39.7564
lfingers 7.12502
lthumb 160.867 -111.165
rfemur -56.4353 14.9211 -3.04228
rtibia 28.131
rfoot -22.6066 -29.315
rtoes 3.0193
lfemur -21.6102 -6.88156 -30.663
ltibia 17.1623
lfoot -14.0635 13.8959
ltoes -16.2603
3382
root 22.7518 16.9099 7.9276 -156.053 3.3784 534.191
lowerback -12.7845 -3.01592 -2.51672
upperback -13.2857 -1.33484 1.76467
thorax -6.85705 0.689952 3.06213
lowerneck -12.0394 -5.92153 -5.06475
upperneck 37.3356 -4.31695 1.70311
head 15.2609 -0.91563 1.29256
rclavicle 5.96354e-015 -2.06736e-014
rhumerus -114.852 23.8015 -135.025
rradius 92.2402
rwrist 35.6006
rhand -53.9799 -45.3775
rfingers 7.12502
rthumb 153.596 -253.559
lclavicle 5.96354e-015 -2.06736e-014
lhumerus -113.538 -29.2152 145.616
lradius 91.8954
lwrist -18.6539
lhand -46.395 39.8926
lfingers 7.12502
lthumb 160.874 -111.028
rfemur -56.6102 15.7231 -3.90667
rtibia 27.6543
rfoot -23.3712 -30.2877
rtoes 3.52756
lfemur -21.0568 -6.90945 -30.6025
ltibia 16.7423
lfoot -14.0829 13.904
ltoes -16.5225
